<svg xmlns="http://www.w3.org/2000/svg" xmlns:xlink="http://www.w3.org/1999/xlink" width="500" zoomAndPan="magnify" viewBox="0 0 375 374.999991" height="500" preserveAspectRatio="xMidYMid meet" version="1.0"><defs><g/><clipPath id="c7c36b3808"><path d="M 141.878906 78.703125 L 233.378906 78.703125 L 233.378906 211 L 141.878906 211 Z M 141.878906 78.703125 " clip-rule="nonzero"/></clipPath></defs><g clip-path="url(#c7c36b3808)"><path fill="#1a1a1a" d="M 233.117188 210.972656 L 161.882812 210.972656 L 161.882812 105.683594 L 143.1875 124.378906 L 143.1875 210.316406 L 141.878906 210.316406 L 141.878906 123.839844 L 161.882812 103.835938 L 161.882812 83.148438 L 172.222656 93.492188 L 186.878906 78.839844 L 233.113281 125.078125 L 233.113281 210.972656 Z M 163.1875 209.667969 L 231.808594 209.667969 L 231.808594 125.617188 L 186.878906 80.6875 L 173.148438 94.417969 L 208.542969 129.808594 L 208.542969 167.988281 L 207.234375 167.988281 L 207.234375 130.351562 L 172.226562 95.339844 L 163.1875 104.378906 Z M 163.1875 86.300781 L 163.1875 102.53125 L 171.300781 94.417969 Z M 197.667969 210.308594 L 197.230469 178.5 L 177.328125 178.5 L 177.328125 210.320312 L 178.632812 210.320312 L 178.632812 179.804688 L 195.941406 179.804688 L 196.367188 210.328125 Z M 197.667969 210.308594 " fill-opacity="1" fill-rule="nonzero"/></g><g fill="#1a1a1a" fill-opacity="1"><g transform="translate(57.38672, 262.54762)"><g><path d="M 1.25 -12.5 C 1.25 -14.445312 1.570312 -16.21875 2.21875 -17.8125 C 2.875 -19.40625 3.769531 -20.773438 4.90625 -21.921875 C 6.050781 -23.078125 7.378906 -23.960938 8.890625 -24.578125 C 10.398438 -25.191406 12.007812 -25.5 13.71875 -25.5 C 14.851562 -25.5 15.976562 -25.394531 17.09375 -25.1875 C 18.21875 -24.976562 19.234375 -24.671875 20.140625 -24.265625 C 21.046875 -23.859375 21.773438 -23.347656 22.328125 -22.734375 C 22.878906 -22.128906 23.15625 -21.425781 23.15625 -20.625 C 23.15625 -20.15625 23.054688 -19.820312 22.859375 -19.625 C 22.671875 -19.4375 22.484375 -19.328125 22.296875 -19.296875 C 22.117188 -19.265625 22.03125 -19.25 22.03125 -19.25 C 21.925781 -19.945312 21.640625 -20.632812 21.171875 -21.3125 C 20.703125 -22 20.085938 -22.617188 19.328125 -23.171875 C 18.578125 -23.722656 17.722656 -24.164062 16.765625 -24.5 C 15.804688 -24.832031 14.789062 -25 13.71875 -25 C 12.269531 -25 10.914062 -24.703125 9.65625 -24.109375 C 8.40625 -23.515625 7.296875 -22.664062 6.328125 -21.5625 C 5.359375 -20.457031 4.601562 -19.140625 4.0625 -17.609375 C 3.519531 -16.085938 3.25 -14.382812 3.25 -12.5 C 3.25 -10.632812 3.519531 -8.929688 4.0625 -7.390625 C 4.601562 -5.859375 5.359375 -4.539062 6.328125 -3.4375 C 7.296875 -2.332031 8.40625 -1.484375 9.65625 -0.890625 C 10.914062 -0.296875 12.269531 0 13.71875 0 C 15.039062 0 16.304688 -0.265625 17.515625 -0.796875 C 18.734375 -1.328125 19.847656 -2.007812 20.859375 -2.84375 C 21.867188 -3.675781 22.691406 -4.550781 23.328125 -5.46875 L 23.328125 -2.671875 C 22.921875 -2.054688 22.226562 -1.507812 21.25 -1.03125 C 20.28125 -0.5625 19.140625 -0.191406 17.828125 0.078125 C 16.523438 0.359375 15.15625 0.5 13.71875 0.5 C 12.007812 0.5 10.398438 0.191406 8.890625 -0.421875 C 7.378906 -1.035156 6.050781 -1.914062 4.90625 -3.0625 C 3.769531 -4.21875 2.875 -5.59375 2.21875 -7.1875 C 1.570312 -8.78125 1.25 -10.550781 1.25 -12.5 Z M 1.25 -12.5 "/></g></g></g><g fill="#1a1a1a" fill-opacity="1"><g transform="translate(81.93283, 262.54762)"><g><path d="M 13.71875 0.5 C 12.007812 0.5 10.398438 0.191406 8.890625 -0.421875 C 7.378906 -1.035156 6.050781 -1.914062 4.90625 -3.0625 C 3.769531 -4.21875 2.875 -5.59375 2.21875 -7.1875 C 1.570312 -8.78125 1.25 -10.550781 1.25 -12.5 C 1.25 -14.445312 1.570312 -16.21875 2.21875 -17.8125 C 2.875 -19.40625 3.769531 -20.773438 4.90625 -21.921875 C 6.050781 -23.078125 7.378906 -23.960938 8.890625 -24.578125 C 10.398438 -25.191406 12.007812 -25.5 13.71875 -25.5 C 15.4375 -25.5 17.050781 -25.191406 18.5625 -24.578125 C 20.070312 -23.960938 21.398438 -23.078125 22.546875 -21.921875 C 23.703125 -20.773438 24.601562 -19.40625 25.25 -17.8125 C 25.894531 -16.21875 26.21875 -14.445312 26.21875 -12.5 C 26.21875 -10.550781 25.894531 -8.78125 25.25 -7.1875 C 24.601562 -5.59375 23.703125 -4.21875 22.546875 -3.0625 C 21.398438 -1.914062 20.070312 -1.035156 18.5625 -0.421875 C 17.050781 0.191406 15.4375 0.5 13.71875 0.5 Z M 3.25 -12.5 C 3.25 -10.632812 3.519531 -8.929688 4.0625 -7.390625 C 4.601562 -5.859375 5.359375 -4.539062 6.328125 -3.4375 C 7.296875 -2.332031 8.40625 -1.484375 9.65625 -0.890625 C 10.914062 -0.296875 12.269531 0 13.71875 0 C 15.175781 0 16.535156 -0.296875 17.796875 -0.890625 C 19.066406 -1.484375 20.179688 -2.332031 21.140625 -3.4375 C 22.097656 -4.539062 22.847656 -5.859375 23.390625 -7.390625 C 23.941406 -8.929688 24.21875 -10.632812 24.21875 -12.5 C 24.21875 -14.382812 23.941406 -16.085938 23.390625 -17.609375 C 22.847656 -19.140625 22.097656 -20.457031 21.140625 -21.5625 C 20.179688 -22.664062 19.066406 -23.515625 17.796875 -24.109375 C 16.535156 -24.703125 15.175781 -25 13.71875 -25 C 12.269531 -25 10.914062 -24.703125 9.65625 -24.109375 C 8.40625 -23.515625 7.296875 -22.664062 6.328125 -21.5625 C 5.359375 -20.457031 4.601562 -19.140625 4.0625 -17.609375 C 3.519531 -16.085938 3.25 -14.382812 3.25 -12.5 Z M 3.25 -12.5 "/></g></g></g><g fill="#1a1a1a" fill-opacity="1"><g transform="translate(109.403478, 262.54762)"><g><path d="M 2 0 L 2 -25 L 4.046875 -25 C 6.578125 -21.394531 9.15625 -17.742188 11.78125 -14.046875 C 14.40625 -10.347656 17.144531 -6.484375 20 -2.453125 C 20.1875 -2.203125 20.34375 -2.078125 20.46875 -2.078125 C 20.675781 -2.078125 20.757812 -2.289062 20.71875 -2.71875 L 19.21875 -25 L 21.328125 -25 L 21.328125 0 L 19.328125 0 C 18.003906 -1.863281 16.710938 -3.675781 15.453125 -5.4375 C 14.203125 -7.207031 12.941406 -8.984375 11.671875 -10.765625 C 10.410156 -12.554688 9.09375 -14.414062 7.71875 -16.34375 C 6.34375 -18.28125 4.878906 -20.347656 3.328125 -22.546875 C 3.160156 -22.796875 3 -22.921875 2.84375 -22.921875 C 2.644531 -22.921875 2.5625 -22.707031 2.59375 -22.28125 L 4.09375 0 Z M 2 0 "/></g></g></g><g fill="#1a1a1a" fill-opacity="1"><g transform="translate(132.724785, 262.54762)"><g><path d="M 1.375 -5.28125 C 1.375 -5.945312 1.5625 -6.488281 1.9375 -6.90625 C 2.3125 -7.320312 2.738281 -7.53125 3.21875 -7.53125 C 3.601562 -7.53125 3.960938 -7.382812 4.296875 -7.09375 C 3.929688 -6.976562 3.671875 -6.769531 3.515625 -6.46875 C 3.367188 -6.175781 3.296875 -5.835938 3.296875 -5.453125 C 3.296875 -4.785156 3.523438 -4.125 3.984375 -3.46875 C 4.441406 -2.820312 5.0625 -2.234375 5.84375 -1.703125 C 6.632812 -1.179688 7.53125 -0.765625 8.53125 -0.453125 C 9.539062 -0.148438 10.597656 0 11.703125 0 C 12.785156 0 13.816406 -0.128906 14.796875 -0.390625 C 15.785156 -0.660156 16.664062 -1.054688 17.4375 -1.578125 C 18.207031 -2.109375 18.8125 -2.757812 19.25 -3.53125 C 19.695312 -4.3125 19.921875 -5.21875 19.921875 -6.25 C 19.921875 -7.28125 19.71875 -8.132812 19.3125 -8.8125 C 18.90625 -9.5 18.347656 -10.046875 17.640625 -10.453125 C 16.929688 -10.867188 16.117188 -11.195312 15.203125 -11.4375 C 14.296875 -11.675781 13.335938 -11.875 12.328125 -12.03125 C 11.328125 -12.195312 10.328125 -12.363281 9.328125 -12.53125 C 8.328125 -12.695312 7.367188 -12.910156 6.453125 -13.171875 C 5.546875 -13.441406 4.738281 -13.800781 4.03125 -14.25 C 3.320312 -14.695312 2.765625 -15.28125 2.359375 -16 C 1.953125 -16.726562 1.75 -17.644531 1.75 -18.75 C 1.75 -19.96875 2.039062 -21.003906 2.625 -21.859375 C 3.207031 -22.722656 3.984375 -23.421875 4.953125 -23.953125 C 5.921875 -24.484375 6.988281 -24.875 8.15625 -25.125 C 9.332031 -25.375 10.503906 -25.5 11.671875 -25.5 C 12.671875 -25.5 13.703125 -25.421875 14.765625 -25.265625 C 15.835938 -25.109375 16.835938 -24.851562 17.765625 -24.5 C 18.703125 -24.144531 19.457031 -23.691406 20.03125 -23.140625 C 20.613281 -22.597656 20.90625 -21.925781 20.90625 -21.125 C 20.90625 -20.738281 20.828125 -20.398438 20.671875 -20.109375 C 20.523438 -19.816406 20.269531 -19.601562 19.90625 -19.46875 C 19.664062 -20.632812 19.117188 -21.625 18.265625 -22.4375 C 17.421875 -23.257812 16.382812 -23.890625 15.15625 -24.328125 C 13.9375 -24.773438 12.632812 -25 11.25 -25 C 8.882812 -25 7.003906 -24.472656 5.609375 -23.421875 C 4.222656 -22.367188 3.53125 -20.851562 3.53125 -18.875 C 3.53125 -18.007812 3.78125 -17.316406 4.28125 -16.796875 C 4.789062 -16.285156 5.476562 -15.875 6.34375 -15.5625 C 7.21875 -15.25 8.195312 -14.992188 9.28125 -14.796875 C 10.363281 -14.597656 11.476562 -14.398438 12.625 -14.203125 C 13.769531 -14.015625 14.882812 -13.765625 15.96875 -13.453125 C 17.050781 -13.148438 18.023438 -12.734375 18.890625 -12.203125 C 19.765625 -11.679688 20.453125 -11 20.953125 -10.15625 C 21.460938 -9.320312 21.71875 -8.253906 21.71875 -6.953125 C 21.71875 -5.679688 21.4375 -4.570312 20.875 -3.625 C 20.3125 -2.6875 19.550781 -1.914062 18.59375 -1.3125 C 17.632812 -0.707031 16.554688 -0.253906 15.359375 0.046875 C 14.171875 0.347656 12.953125 0.5 11.703125 0.5 C 9.671875 0.5 7.875 0.257812 6.3125 -0.21875 C 4.75 -0.707031 3.535156 -1.390625 2.671875 -2.265625 C 1.804688 -3.140625 1.375 -4.144531 1.375 -5.28125 Z M 1.375 -5.28125 "/></g></g></g><g fill="#1a1a1a" fill-opacity="1"><g transform="translate(155.596167, 262.54762)"><g><path d="M 1.5 -25 L 20.75 -25 L 20.75 -22.78125 C 20.226562 -23.007812 19.601562 -23.222656 18.875 -23.421875 C 18.15625 -23.617188 17.425781 -23.800781 16.6875 -23.96875 C 15.945312 -24.132812 15.28125 -24.265625 14.6875 -24.359375 C 14.09375 -24.453125 13.679688 -24.5 13.453125 -24.5 C 13.003906 -24.5 12.671875 -24.382812 12.453125 -24.15625 C 12.234375 -23.9375 12.125 -23.484375 12.125 -22.796875 L 12.125 0 L 10.125 0 L 10.125 -22.796875 C 10.125 -23.484375 10.015625 -23.9375 9.796875 -24.15625 C 9.578125 -24.382812 9.242188 -24.5 8.796875 -24.5 C 8.566406 -24.5 8.15625 -24.453125 7.5625 -24.359375 C 6.96875 -24.265625 6.300781 -24.132812 5.5625 -23.96875 C 4.820312 -23.800781 4.085938 -23.617188 3.359375 -23.421875 C 2.640625 -23.222656 2.019531 -23.007812 1.5 -22.78125 Z M 1.5 -25 "/></g></g></g><g fill="#1a1a1a" fill-opacity="1"><g transform="translate(177.842645, 262.54762)"><g><path d="M 2 0 L 2 -25 L 13.5 -25 C 14.769531 -25 15.859375 -24.835938 16.765625 -24.515625 C 17.671875 -24.191406 18.414062 -23.757812 19 -23.21875 C 19.582031 -22.6875 20.046875 -22.097656 20.390625 -21.453125 C 20.734375 -20.816406 20.96875 -20.1875 21.09375 -19.5625 C 21.226562 -18.9375 21.296875 -18.375 21.296875 -17.875 C 21.296875 -17.375 21.226562 -16.8125 21.09375 -16.1875 C 20.96875 -15.5625 20.734375 -14.9375 20.390625 -14.3125 C 20.046875 -13.6875 19.582031 -13.109375 19 -12.578125 C 18.414062 -12.046875 17.671875 -11.613281 16.765625 -11.28125 C 15.867188 -10.945312 14.78125 -10.769531 13.5 -10.75 L 12.78125 -10.75 C 12.40625 -10.75 12.234375 -10.691406 12.265625 -10.578125 C 12.304688 -10.460938 12.476562 -10.285156 12.78125 -10.046875 C 13.476562 -9.492188 14.1875 -8.757812 14.90625 -7.84375 C 15.632812 -6.925781 16.457031 -5.851562 17.375 -4.625 C 17.894531 -3.9375 18.441406 -3.285156 19.015625 -2.671875 C 19.585938 -2.054688 20.132812 -1.519531 20.65625 -1.0625 C 21.1875 -0.601562 21.632812 -0.25 22 0 L 19.171875 0 C 18.585938 -0.351562 17.988281 -0.859375 17.375 -1.515625 C 16.757812 -2.171875 16.140625 -2.90625 15.515625 -3.71875 C 14.898438 -4.539062 14.289062 -5.359375 13.6875 -6.171875 C 13.082031 -6.992188 12.488281 -7.75 11.90625 -8.4375 C 11.320312 -9.125 10.753906 -9.679688 10.203125 -10.109375 C 9.648438 -10.535156 9.125 -10.75 8.625 -10.75 L 6.40625 -10.75 L 6.40625 -11.25 L 11.296875 -11.25 C 13.796875 -11.25 15.691406 -11.84375 16.984375 -13.03125 C 18.273438 -14.226562 18.921875 -15.84375 18.921875 -17.875 C 18.921875 -19.90625 18.273438 -21.515625 16.984375 -22.703125 C 15.691406 -23.898438 13.796875 -24.5 11.296875 -24.5 L 5.296875 -24.5 C 4.847656 -24.5 4.515625 -24.40625 4.296875 -24.21875 C 4.078125 -24.039062 3.96875 -23.609375 3.96875 -22.921875 C 3.96875 -22.828125 3.96875 -22.429688 3.96875 -21.734375 C 3.96875 -21.046875 3.96875 -20.144531 3.96875 -19.03125 C 3.96875 -17.925781 3.96875 -16.695312 3.96875 -15.34375 C 3.96875 -14 3.972656 -12.613281 3.984375 -11.1875 C 3.992188 -9.757812 4 -8.378906 4 -7.046875 C 4 -5.710938 4 -4.515625 4 -3.453125 C 4 -2.398438 4 -1.5625 4 -0.9375 C 4 -0.3125 4 0 4 0 Z M 2 0 "/></g></g></g><g fill="#1a1a1a" fill-opacity="1"><g transform="translate(200.339084, 262.54762)"><g><path d="M 11.46875 0.5 C 9.707031 0.5 8.207031 0.296875 6.96875 -0.109375 C 5.738281 -0.515625 4.753906 -1.082031 4.015625 -1.8125 C 3.273438 -2.539062 2.734375 -3.375 2.390625 -4.3125 C 2.046875 -5.25 1.875 -6.242188 1.875 -7.296875 L 1.875 -25 L 3.875 -25 C 3.875 -25 3.875 -24.773438 3.875 -24.328125 C 3.875 -23.878906 3.867188 -23.273438 3.859375 -22.515625 C 3.847656 -21.753906 3.84375 -20.90625 3.84375 -19.96875 C 3.84375 -19.039062 3.84375 -18.09375 3.84375 -17.125 C 3.84375 -16.15625 3.835938 -15.234375 3.828125 -14.359375 C 3.828125 -13.484375 3.828125 -12.722656 3.828125 -12.078125 C 3.828125 -11.441406 3.828125 -10.988281 3.828125 -10.71875 L 3.828125 -6.25 C 3.828125 -5.195312 4.007812 -4.300781 4.375 -3.5625 C 4.738281 -2.832031 5.21875 -2.234375 5.8125 -1.765625 C 6.40625 -1.304688 7.039062 -0.945312 7.71875 -0.6875 C 8.40625 -0.425781 9.082031 -0.242188 9.75 -0.140625 C 10.414062 -0.046875 10.988281 0 11.46875 0 C 11.957031 0 12.53125 -0.03125 13.1875 -0.09375 C 13.84375 -0.164062 14.515625 -0.304688 15.203125 -0.515625 C 15.898438 -0.722656 16.546875 -1.035156 17.140625 -1.453125 C 17.734375 -1.867188 18.210938 -2.421875 18.578125 -3.109375 C 18.941406 -3.804688 19.125 -4.675781 19.125 -5.71875 L 19.125 -25 L 21.125 -25 L 21.125 -3.046875 C 20.269531 -1.910156 18.984375 -1.035156 17.265625 -0.421875 C 15.554688 0.191406 13.625 0.5 11.46875 0.5 Z M 11.46875 0.5 "/></g></g></g><g fill="#1a1a1a" fill-opacity="1"><g transform="translate(223.460417, 262.54762)"><g><path d="M 1.5 -25 L 20.75 -25 L 20.75 -22.78125 C 20.226562 -23.007812 19.601562 -23.222656 18.875 -23.421875 C 18.15625 -23.617188 17.425781 -23.800781 16.6875 -23.96875 C 15.945312 -24.132812 15.28125 -24.265625 14.6875 -24.359375 C 14.09375 -24.453125 13.679688 -24.5 13.453125 -24.5 C 13.003906 -24.5 12.671875 -24.382812 12.453125 -24.15625 C 12.234375 -23.9375 12.125 -23.484375 12.125 -22.796875 L 12.125 0 L 10.125 0 L 10.125 -22.796875 C 10.125 -23.484375 10.015625 -23.9375 9.796875 -24.15625 C 9.578125 -24.382812 9.242188 -24.5 8.796875 -24.5 C 8.566406 -24.5 8.15625 -24.453125 7.5625 -24.359375 C 6.96875 -24.265625 6.300781 -24.132812 5.5625 -23.96875 C 4.820312 -23.800781 4.085938 -23.617188 3.359375 -23.421875 C 2.640625 -23.222656 2.019531 -23.007812 1.5 -22.78125 Z M 1.5 -25 "/></g></g></g><g fill="#1a1a1a" fill-opacity="1"><g transform="translate(245.706894, 262.54762)"><g><path d="M 13.71875 0.5 C 12.007812 0.5 10.398438 0.191406 8.890625 -0.421875 C 7.378906 -1.035156 6.050781 -1.914062 4.90625 -3.0625 C 3.769531 -4.21875 2.875 -5.59375 2.21875 -7.1875 C 1.570312 -8.78125 1.25 -10.550781 1.25 -12.5 C 1.25 -14.445312 1.570312 -16.21875 2.21875 -17.8125 C 2.875 -19.40625 3.769531 -20.773438 4.90625 -21.921875 C 6.050781 -23.078125 7.378906 -23.960938 8.890625 -24.578125 C 10.398438 -25.191406 12.007812 -25.5 13.71875 -25.5 C 15.4375 -25.5 17.050781 -25.191406 18.5625 -24.578125 C 20.070312 -23.960938 21.398438 -23.078125 22.546875 -21.921875 C 23.703125 -20.773438 24.601562 -19.40625 25.25 -17.8125 C 25.894531 -16.21875 26.21875 -14.445312 26.21875 -12.5 C 26.21875 -10.550781 25.894531 -8.78125 25.25 -7.1875 C 24.601562 -5.59375 23.703125 -4.21875 22.546875 -3.0625 C 21.398438 -1.914062 20.070312 -1.035156 18.5625 -0.421875 C 17.050781 0.191406 15.4375 0.5 13.71875 0.5 Z M 3.25 -12.5 C 3.25 -10.632812 3.519531 -8.929688 4.0625 -7.390625 C 4.601562 -5.859375 5.359375 -4.539062 6.328125 -3.4375 C 7.296875 -2.332031 8.40625 -1.484375 9.65625 -0.890625 C 10.914062 -0.296875 12.269531 0 13.71875 0 C 15.175781 0 16.535156 -0.296875 17.796875 -0.890625 C 19.066406 -1.484375 20.179688 -2.332031 21.140625 -3.4375 C 22.097656 -4.539062 22.847656 -5.859375 23.390625 -7.390625 C 23.941406 -8.929688 24.21875 -10.632812 24.21875 -12.5 C 24.21875 -14.382812 23.941406 -16.085938 23.390625 -17.609375 C 22.847656 -19.140625 22.097656 -20.457031 21.140625 -21.5625 C 20.179688 -22.664062 19.066406 -23.515625 17.796875 -24.109375 C 16.535156 -24.703125 15.175781 -25 13.71875 -25 C 12.269531 -25 10.914062 -24.703125 9.65625 -24.109375 C 8.40625 -23.515625 7.296875 -22.664062 6.328125 -21.5625 C 5.359375 -20.457031 4.601562 -19.140625 4.0625 -17.609375 C 3.519531 -16.085938 3.25 -14.382812 3.25 -12.5 Z M 3.25 -12.5 "/></g></g></g><g fill="#1a1a1a" fill-opacity="1"><g transform="translate(273.177553, 262.54762)"><g><path d="M 2 0 L 2 -25 L 13.5 -25 C 14.769531 -25 15.859375 -24.835938 16.765625 -24.515625 C 17.671875 -24.191406 18.414062 -23.757812 19 -23.21875 C 19.582031 -22.6875 20.046875 -22.097656 20.390625 -21.453125 C 20.734375 -20.816406 20.96875 -20.1875 21.09375 -19.5625 C 21.226562 -18.9375 21.296875 -18.375 21.296875 -17.875 C 21.296875 -17.375 21.226562 -16.8125 21.09375 -16.1875 C 20.96875 -15.5625 20.734375 -14.9375 20.390625 -14.3125 C 20.046875 -13.6875 19.582031 -13.109375 19 -12.578125 C 18.414062 -12.046875 17.671875 -11.613281 16.765625 -11.28125 C 15.867188 -10.945312 14.78125 -10.769531 13.5 -10.75 L 12.78125 -10.75 C 12.40625 -10.75 12.234375 -10.691406 12.265625 -10.578125 C 12.304688 -10.460938 12.476562 -10.285156 12.78125 -10.046875 C 13.476562 -9.492188 14.1875 -8.757812 14.90625 -7.84375 C 15.632812 -6.925781 16.457031 -5.851562 17.375 -4.625 C 17.894531 -3.9375 18.441406 -3.285156 19.015625 -2.671875 C 19.585938 -2.054688 20.132812 -1.519531 20.65625 -1.0625 C 21.1875 -0.601562 21.632812 -0.25 22 0 L 19.171875 0 C 18.585938 -0.351562 17.988281 -0.859375 17.375 -1.515625 C 16.757812 -2.171875 16.140625 -2.90625 15.515625 -3.71875 C 14.898438 -4.539062 14.289062 -5.359375 13.6875 -6.171875 C 13.082031 -6.992188 12.488281 -7.75 11.90625 -8.4375 C 11.320312 -9.125 10.753906 -9.679688 10.203125 -10.109375 C 9.648438 -10.535156 9.125 -10.75 8.625 -10.75 L 6.40625 -10.75 L 6.40625 -11.25 L 11.296875 -11.25 C 13.796875 -11.25 15.691406 -11.84375 16.984375 -13.03125 C 18.273438 -14.226562 18.921875 -15.84375 18.921875 -17.875 C 18.921875 -19.90625 18.273438 -21.515625 16.984375 -22.703125 C 15.691406 -23.898438 13.796875 -24.5 11.296875 -24.5 L 5.296875 -24.5 C 4.847656 -24.5 4.515625 -24.40625 4.296875 -24.21875 C 4.078125 -24.039062 3.96875 -23.609375 3.96875 -22.921875 C 3.96875 -22.828125 3.96875 -22.429688 3.96875 -21.734375 C 3.96875 -21.046875 3.96875 -20.144531 3.96875 -19.03125 C 3.96875 -17.925781 3.96875 -16.695312 3.96875 -15.34375 C 3.96875 -14 3.972656 -12.613281 3.984375 -11.1875 C 3.992188 -9.757812 4 -8.378906 4 -7.046875 C 4 -5.710938 4 -4.515625 4 -3.453125 C 4 -2.398438 4 -1.5625 4 -0.9375 C 4 -0.3125 4 0 4 0 Z M 2 0 "/></g></g></g><g fill="#1a1a1a" fill-opacity="1"><g transform="translate(295.673981, 262.54762)"><g><path d="M 2.703125 0 L 0.5 0 L 9.03125 -23.828125 L 8.5 -25 L 10.703125 -25 L 21.84375 0 L 19.65625 0 L 17.828125 -4.078125 C 17.523438 -4.753906 17.082031 -5.367188 16.5 -5.921875 C 15.914062 -6.472656 15.253906 -6.941406 14.515625 -7.328125 C 13.785156 -7.710938 13.03125 -8.003906 12.25 -8.203125 C 11.46875 -8.398438 10.726562 -8.5 10.03125 -8.5 C 9.226562 -8.5 8.4375 -8.375 7.65625 -8.125 C 6.882812 -7.875 6.132812 -7.484375 5.40625 -6.953125 C 5.132812 -6.753906 4.863281 -6.425781 4.59375 -5.96875 C 4.332031 -5.507812 4.144531 -5.078125 4.03125 -4.671875 Z M 5.421875 -9.46875 C 5.304688 -9.019531 5.347656 -8.796875 5.546875 -8.796875 C 5.648438 -8.796875 5.832031 -8.863281 6.09375 -9 C 6.59375 -9.28125 7.109375 -9.484375 7.640625 -9.609375 C 8.179688 -9.734375 8.726562 -9.796875 9.28125 -9.796875 C 10.457031 -9.796875 11.617188 -9.546875 12.765625 -9.046875 C 13.921875 -8.546875 14.972656 -7.90625 15.921875 -7.125 C 16.203125 -6.894531 16.378906 -6.804688 16.453125 -6.859375 C 16.535156 -6.921875 16.5 -7.117188 16.34375 -7.453125 L 9.90625 -21.90625 C 9.75 -22.25 9.585938 -22.421875 9.421875 -22.421875 C 9.253906 -22.421875 9.101562 -22.222656 8.96875 -21.828125 Z M 5.421875 -9.46875 "/></g></g></g><g fill="#1a1a1a" fill-opacity="1"><g transform="translate(169.20115, 283.047608)"><g><path d="M 1.125 0 L 1.125 -7 L 3.34375 -7 C 4.15625 -7 4.789062 -6.796875 5.25 -6.390625 C 5.707031 -5.992188 5.9375 -5.429688 5.9375 -4.703125 C 5.9375 -3.972656 5.707031 -3.40625 5.25 -3 C 4.789062 -2.601562 4.15625 -2.40625 3.34375 -2.40625 L 1.734375 -2.40625 L 1.734375 0 Z M 1.734375 -2.953125 L 3.34375 -2.953125 C 4.65625 -2.953125 5.3125 -3.53125 5.3125 -4.6875 C 5.3125 -5.84375 4.65625 -6.421875 3.34375 -6.421875 L 1.734375 -6.421875 Z M 1.734375 -2.953125 "/></g></g></g><g fill="#1a1a1a" fill-opacity="1"><g transform="translate(181.598603, 283.047608)"><g><path d="M 1.203125 0.0625 C 1.046875 0.0625 0.921875 0.015625 0.828125 -0.078125 C 0.734375 -0.179688 0.6875 -0.304688 0.6875 -0.453125 C 0.6875 -0.609375 0.734375 -0.734375 0.828125 -0.828125 C 0.921875 -0.929688 1.046875 -0.984375 1.203125 -0.984375 C 1.367188 -0.984375 1.5 -0.929688 1.59375 -0.828125 C 1.6875 -0.734375 1.734375 -0.609375 1.734375 -0.453125 C 1.734375 -0.304688 1.6875 -0.179688 1.59375 -0.078125 C 1.5 0.015625 1.367188 0.0625 1.203125 0.0625 Z M 1.203125 0.0625 "/></g></g></g><g fill="#1a1a1a" fill-opacity="1"><g transform="translate(190.01762, 283.047608)"><g><path d="M 3.6875 0.125 C 2.863281 0.125 2.21875 -0.128906 1.75 -0.640625 C 1.28125 -1.148438 1.046875 -1.859375 1.046875 -2.765625 L 1.046875 -7 L 1.640625 -7 L 1.640625 -2.796875 C 1.640625 -2.046875 1.816406 -1.46875 2.171875 -1.0625 C 2.523438 -0.664062 3.03125 -0.46875 3.6875 -0.46875 C 4.332031 -0.46875 4.832031 -0.664062 5.1875 -1.0625 C 5.539062 -1.46875 5.71875 -2.046875 5.71875 -2.796875 L 5.71875 -7 L 6.3125 -7 L 6.3125 -2.765625 C 6.3125 -1.859375 6.078125 -1.148438 5.609375 -0.640625 C 5.140625 -0.128906 4.5 0.125 3.6875 0.125 Z M 3.6875 0.125 "/></g></g></g><g fill="#1a1a1a" fill-opacity="1"><g transform="translate(203.374694, 283.047608)"><g><path d="M 1.203125 0.0625 C 1.046875 0.0625 0.921875 0.015625 0.828125 -0.078125 C 0.734375 -0.179688 0.6875 -0.304688 0.6875 -0.453125 C 0.6875 -0.609375 0.734375 -0.734375 0.828125 -0.828125 C 0.921875 -0.929688 1.046875 -0.984375 1.203125 -0.984375 C 1.367188 -0.984375 1.5 -0.929688 1.59375 -0.828125 C 1.6875 -0.734375 1.734375 -0.609375 1.734375 -0.453125 C 1.734375 -0.304688 1.6875 -0.179688 1.59375 -0.078125 C 1.5 0.015625 1.367188 0.0625 1.203125 0.0625 Z M 1.203125 0.0625 "/></g></g></g></svg>